<svg width="15" height="15" viewBox="0 0 15 15" fill="none" xmlns="http://www.w3.org/2000/svg">
<path d="M8.4375 3.98438V0H2.57812C2.18848 0 1.875 0.313477 1.875 0.703125V14.2969C1.875 14.6865 2.18848 15 2.57812 15H12.4219C12.8115 15 13.125 14.6865 13.125 14.2969V4.6875H9.14062C8.75391 4.6875 8.4375 4.37109 8.4375 3.98438ZM10.6772 10.1766L7.85244 12.9803C7.65762 13.1739 7.34297 13.1739 7.14814 12.9803L4.32334 10.1766C4.02598 9.88154 4.23457 9.375 4.65293 9.375H6.5625V7.03125C6.5625 6.77227 6.77227 6.5625 7.03125 6.5625H7.96875C8.22773 6.5625 8.4375 6.77227 8.4375 7.03125V9.375H10.3471C10.7654 9.375 10.974 9.88154 10.6772 10.1766ZM12.9199 3.07617L10.0518 0.205078C9.91992 0.0732422 9.74121 0 9.55371 0H9.375V3.75H13.125V3.57129C13.125 3.38672 13.0518 3.20801 12.9199 3.07617Z" fill="black"/>
</svg>
