<svg width="15" height="15" viewBox="0 0 15 15" fill="none" xmlns="http://www.w3.org/2000/svg">
<path d="M11.25 9.375C10.5877 9.375 9.9789 9.60407 9.49834 9.98716L6.49582 8.11058C6.58474 7.70837 6.58474 7.2916 6.49582 6.88939L9.49834 5.01281C9.9789 5.39593 10.5877 5.625 11.25 5.625C12.8033 5.625 14.0625 4.36579 14.0625 2.8125C14.0625 1.25921 12.8033 0 11.25 0C9.69671 0 8.4375 1.25921 8.4375 2.8125C8.4375 3.02221 8.46064 3.22646 8.50418 3.42308L5.50166 5.29966C5.0211 4.91657 4.41234 4.6875 3.75 4.6875C2.19671 4.6875 0.9375 5.94671 0.9375 7.5C0.9375 9.05329 2.19671 10.3125 3.75 10.3125C4.41234 10.3125 5.0211 10.0834 5.50166 9.70034L8.50418 11.5769C8.4598 11.7774 8.43744 11.9822 8.4375 12.1875C8.4375 13.7408 9.69671 15 11.25 15C12.8033 15 14.0625 13.7408 14.0625 12.1875C14.0625 10.6342 12.8033 9.375 11.25 9.375Z" fill="black"/>
</svg>
