<svg width="20" height="20" viewBox="0 0 20 20" fill="none" xmlns="http://www.w3.org/2000/svg">
<g filter="url(#filter0_b)">
<circle cx="10" cy="10" r="10" fill="white" fill-opacity="0.2"/>
</g>
<path d="M15.8351 12.1655C16.213 12.2668 16.4406 12.6569 16.3024 13.0229C15.8292 14.2764 15.0107 15.3763 13.9352 16.1913C12.6709 17.1494 11.1235 17.6592 9.53719 17.6401C7.95092 17.6211 6.41618 17.0742 5.17524 16.086C4.11971 15.2454 3.32788 14.1261 2.88488 12.8617C2.75553 12.4924 2.99242 12.1079 3.37265 12.0157C3.75288 11.9236 4.1317 12.1593 4.27009 12.5253C4.6329 13.4847 5.24871 14.3333 6.05785 14.9777C7.05254 15.7698 8.28273 16.2082 9.55422 16.2234C10.8257 16.2387 12.0661 15.8301 13.0795 15.0621C13.9039 14.4374 14.5399 13.6037 14.9257 12.6534C15.0728 12.2908 15.4572 12.0642 15.8351 12.1655Z" fill="white"/>
<path fill-rule="evenodd" clip-rule="evenodd" d="M13.7735 15.9779C14.8086 15.1935 15.5964 14.1348 16.0519 12.9284C16.1279 12.7272 16.0086 12.4892 15.7658 12.4241C15.5376 12.363 15.278 12.4974 15.1738 12.754C14.77 13.7489 14.1042 14.6215 13.2412 15.2755C12.1804 16.0794 10.882 16.5072 9.551 16.4912C8.22003 16.4752 6.93229 16.0163 5.89106 15.1871C5.04407 14.5126 4.39944 13.6243 4.01966 12.62C3.92167 12.3609 3.66532 12.2203 3.43571 12.2759C3.19143 12.3351 3.06648 12.5702 3.13756 12.7731C3.56395 13.9902 4.32609 15.0675 5.34203 15.8765C6.53644 16.8277 8.01363 17.3541 9.54041 17.3724C11.0672 17.3908 12.5566 16.9001 13.7735 15.9779ZM16.3024 13.0229C16.4406 12.6569 16.213 12.2668 15.8351 12.1655C15.4572 12.0642 15.0728 12.2908 14.9257 12.6534C14.5399 13.6037 13.9039 14.4374 13.0795 15.0621C12.0661 15.8301 10.8257 16.2387 9.55422 16.2234C8.28273 16.2082 7.05254 15.7698 6.05785 14.9777C5.24871 14.3333 4.6329 13.4847 4.27009 12.5253C4.1317 12.1593 3.75288 11.9236 3.37265 12.0157C2.99242 12.1079 2.75553 12.4924 2.88488 12.8617C3.32788 14.1261 4.11971 15.2454 5.17524 16.086C6.41618 17.0742 7.95092 17.6211 9.53719 17.6401C11.1235 17.6592 12.6709 17.1494 13.9352 16.1913C15.0107 15.3763 15.8292 14.2764 16.3024 13.0229Z" fill="white"/>
<path d="M16.8822 9.77362C17.1796 9.60187 17.5515 9.81656 17.5515 10.1601V13.3636C17.5515 13.7071 17.1796 13.9218 16.8822 13.7501L14.1078 12.1483C13.8103 11.9765 13.8103 11.5471 14.1078 11.3754L16.8822 9.77362Z" fill="white"/>
<path d="M4.04985 7.97513C3.67194 7.87387 3.44436 7.48373 3.58256 7.11771C4.05565 5.86468 4.87376 4.7651 5.94866 3.95019C7.21245 2.99209 8.75927 2.48203 10.3451 2.50048C11.9309 2.51894 13.4654 3.06486 14.7066 4.05212C15.7622 4.89183 16.5545 6.01014 16.9983 7.27385C17.1279 7.64299 16.8913 8.02773 16.5112 8.12017C16.131 8.2126 15.752 7.97712 15.6134 7.61129C15.2499 6.65251 14.6338 5.80459 13.8246 5.16091C12.8297 4.36956 11.5997 3.93197 10.3286 3.91718C9.05746 3.90238 7.8176 4.31123 6.80459 5.07921C5.98062 5.70388 5.3449 6.53723 4.95928 7.48729C4.81213 7.8498 4.42775 8.07639 4.04985 7.97513Z" fill="white"/>
<path fill-rule="evenodd" clip-rule="evenodd" d="M6.11041 4.16355C5.07582 4.94789 4.28839 6.00624 3.83303 7.21228C3.7571 7.41341 3.87636 7.65146 4.11914 7.71652C4.34735 7.77767 4.607 7.64329 4.7112 7.38659C5.11486 6.39209 5.78032 5.51975 6.64284 4.86585C7.70324 4.06194 9.00111 3.63397 10.3317 3.64946C11.6623 3.66494 12.9499 4.12301 13.9913 4.95138C14.8383 5.62517 15.4833 6.51277 15.8637 7.51639C15.9619 7.77544 16.2184 7.91583 16.4479 7.86001C16.6922 7.80062 16.8169 7.56541 16.7457 7.36257C16.3185 6.14625 15.5559 5.06987 14.5399 4.26166C13.3453 3.31142 11.8683 2.78597 10.342 2.7682C8.81562 2.75044 7.32681 3.24137 6.11041 4.16355ZM3.58256 7.11771C3.44436 7.48373 3.67194 7.87387 4.04985 7.97513C4.42775 8.07639 4.81213 7.8498 4.95928 7.48729C5.3449 6.53723 5.98062 5.70388 6.80459 5.07921C7.8176 4.31123 9.05746 3.90238 10.3286 3.91718C11.5997 3.93197 12.8297 4.36956 13.8246 5.16091C14.6338 5.80459 15.2499 6.65251 15.6134 7.61129C15.752 7.97712 16.131 8.2126 16.5112 8.12017C16.8913 8.02773 17.1279 7.64299 16.9983 7.27385C16.5545 6.01014 15.7622 4.89183 14.7066 4.05212C13.4654 3.06486 11.9309 2.51894 10.3451 2.50048C8.75927 2.48203 7.21245 2.99209 5.94866 3.95019C4.87376 4.7651 4.05565 5.86468 3.58256 7.11771Z" fill="white"/>
<path d="M3.00284 10.367C2.70535 10.5388 2.3335 10.3241 2.3335 9.98057L2.3335 6.77703C2.3335 6.43352 2.70535 6.21883 3.00284 6.39058L5.77719 7.99236C6.07468 8.16411 6.07468 8.59349 5.77719 8.76525L3.00284 10.367Z" fill="white"/>
<defs>
<filter id="filter0_b" x="-25" y="-25" width="70" height="70" filterUnits="userSpaceOnUse" color-interpolation-filters="sRGB">
<feFlood flood-opacity="0" result="BackgroundImageFix"/>
<feGaussianBlur in="BackgroundImage" stdDeviation="12.5"/>
<feComposite in2="SourceAlpha" operator="in" result="effect1_backgroundBlur"/>
<feBlend mode="normal" in="SourceGraphic" in2="effect1_backgroundBlur" result="shape"/>
</filter>
</defs>
</svg>
