<svg width="20" height="20" viewBox="0 0 20 20" fill="none" xmlns="http://www.w3.org/2000/svg">
<g filter="url(#filter0_b)">
<circle cx="10" cy="10" r="10" fill="white" fill-opacity="0.2"/>
</g>
<path fill-rule="evenodd" clip-rule="evenodd" d="M5.88908 6.66664C5.88908 6.35981 6.13781 6.11108 6.44463 6.11108H15.2224C15.5292 6.11108 15.778 6.35981 15.778 6.66664C15.778 6.97346 15.5292 7.2222 15.2224 7.2222H6.44463C6.13781 7.2222 5.88908 6.97346 5.88908 6.66664Z" fill="white"/>
<path fill-rule="evenodd" clip-rule="evenodd" d="M5.88908 8.88886C5.88908 8.58204 6.13781 8.33331 6.44463 8.33331H15.2224C15.5292 8.33331 15.778 8.58204 15.778 8.88886C15.778 9.19569 15.5292 9.44442 15.2224 9.44442H6.44463C6.13781 9.44442 5.88908 9.19569 5.88908 8.88886Z" fill="white"/>
<path fill-rule="evenodd" clip-rule="evenodd" d="M5.88908 11.1111C5.88908 10.8043 6.13781 10.5555 6.44463 10.5555H15.2224C15.5292 10.5555 15.778 10.8043 15.778 11.1111C15.778 11.4179 15.5292 11.6666 15.2224 11.6666H6.44463C6.13781 11.6666 5.88908 11.4179 5.88908 11.1111Z" fill="white"/>
<path fill-rule="evenodd" clip-rule="evenodd" d="M5.88908 13.3333C5.88908 13.0265 6.13781 12.7778 6.44463 12.7778H15.2224C15.5292 12.7778 15.778 13.0265 15.778 13.3333C15.778 13.6401 15.5292 13.8889 15.2224 13.8889H6.44463C6.13781 13.8889 5.88908 13.6401 5.88908 13.3333Z" fill="white"/>
<path d="M5.33352 6.66664C5.33352 6.97346 5.08479 7.2222 4.77797 7.2222C4.47114 7.2222 4.22241 6.97346 4.22241 6.66664C4.22241 6.35981 4.47114 6.11108 4.77797 6.11108C5.08479 6.11108 5.33352 6.35981 5.33352 6.66664Z" fill="white"/>
<path d="M5.33352 8.88886C5.33352 9.19569 5.08479 9.44442 4.77797 9.44442C4.47114 9.44442 4.22241 9.19569 4.22241 8.88886C4.22241 8.58204 4.47114 8.33331 4.77797 8.33331C5.08479 8.33331 5.33352 8.58204 5.33352 8.88886Z" fill="white"/>
<path d="M5.33352 11.1111C5.33352 11.4179 5.08479 11.6666 4.77797 11.6666C4.47114 11.6666 4.22241 11.4179 4.22241 11.1111C4.22241 10.8043 4.47114 10.5555 4.77797 10.5555C5.08479 10.5555 5.33352 10.8043 5.33352 11.1111Z" fill="white"/>
<path d="M5.33352 13.3333C5.33352 13.6401 5.08479 13.8889 4.77797 13.8889C4.47114 13.8889 4.22241 13.6401 4.22241 13.3333C4.22241 13.0265 4.47114 12.7778 4.77797 12.7778C5.08479 12.7778 5.33352 13.0265 5.33352 13.3333Z" fill="white"/>
<defs>
<filter id="filter0_b" x="-10" y="-10" width="40" height="40" filterUnits="userSpaceOnUse" color-interpolation-filters="sRGB">
<feFlood flood-opacity="0" result="BackgroundImageFix"/>
<feGaussianBlur in="BackgroundImage" stdDeviation="5"/>
<feComposite in2="SourceAlpha" operator="in" result="effect1_backgroundBlur"/>
<feBlend mode="normal" in="SourceGraphic" in2="effect1_backgroundBlur" result="shape"/>
</filter>
</defs>
</svg>
