<svg width="20" height="20" viewBox="0 0 20 20" fill="none" xmlns="http://www.w3.org/2000/svg">
<g filter="url(#filter0_b)">
<circle cx="10" cy="10" r="10" fill="white" fill-opacity="0.2"/>
</g>
<path d="M15.8349 12.1655C16.2128 12.2668 16.4404 12.6569 16.3022 13.0229C15.8289 14.2764 15.0104 15.3763 13.935 16.1913C12.6707 17.1494 11.1232 17.6592 9.53695 17.6401C7.95068 17.6211 6.41594 17.0742 5.17499 16.086C4.11947 15.2454 3.32763 14.1261 2.88464 12.8617C2.75528 12.4924 2.99218 12.1079 3.37241 12.0157C3.75263 11.9236 4.13146 12.1593 4.26985 12.5253C4.63265 13.4847 5.24847 14.3333 6.0576 14.9777C7.0523 15.7698 8.28249 16.2082 9.55397 16.2234C10.8255 16.2387 12.0658 15.8301 13.0793 15.0621C13.9037 14.4374 14.5397 13.6037 14.9255 12.6534C15.0726 12.2908 15.457 12.0642 15.8349 12.1655Z" fill="white"/>
<path fill-rule="evenodd" clip-rule="evenodd" d="M13.7733 15.9779C14.8084 15.1935 15.5962 14.1348 16.0517 12.9284C16.1276 12.7272 16.0084 12.4892 15.7656 12.4241C15.5374 12.363 15.2777 12.4974 15.1735 12.754C14.7697 13.7489 14.1039 14.6215 13.241 15.2755C12.1801 16.0794 10.8817 16.5072 9.55076 16.4912C8.21978 16.4752 6.93204 16.0163 5.89081 15.1871C5.04382 14.5126 4.3992 13.6243 4.01942 12.62C3.92142 12.3609 3.66507 12.2203 3.43547 12.2759C3.19119 12.3351 3.06624 12.5702 3.13732 12.7731C3.5637 13.9902 4.32584 15.0675 5.34178 15.8765C6.5362 16.8277 8.01338 17.3541 9.54016 17.3724C11.0669 17.3908 12.5564 16.9001 13.7733 15.9779ZM16.3022 13.0229C16.4404 12.6569 16.2128 12.2668 15.8349 12.1655C15.457 12.0642 15.0726 12.2908 14.9255 12.6534C14.5397 13.6037 13.9037 14.4374 13.0793 15.0621C12.0658 15.8301 10.8255 16.2387 9.55397 16.2234C8.28249 16.2082 7.0523 15.7698 6.0576 14.9777C5.24847 14.3333 4.63265 13.4847 4.26985 12.5253C4.13146 12.1593 3.75263 11.9236 3.37241 12.0157C2.99218 12.1079 2.75528 12.4924 2.88464 12.8617C3.32763 14.1261 4.11947 15.2454 5.17499 16.086C6.41594 17.0742 7.95068 17.6211 9.53695 17.6401C11.1232 17.6592 12.6707 17.1494 13.935 16.1913C15.0104 15.3763 15.8289 14.2764 16.3022 13.0229Z" fill="white"/>
<path d="M16.8819 9.77362C17.1794 9.60187 17.5513 9.81656 17.5513 10.1601V13.3636C17.5513 13.7071 17.1794 13.9218 16.8819 13.7501L14.1076 12.1483C13.8101 11.9765 13.8101 11.5471 14.1076 11.3754L16.8819 9.77362Z" fill="white"/>
<path d="M4.0496 7.97513C3.6717 7.87387 3.44412 7.48373 3.58231 7.11771C4.05541 5.86468 4.87352 4.7651 5.94842 3.95019C7.21221 2.99209 8.75902 2.48203 10.3448 2.50048C11.9306 2.51894 13.4652 3.06486 14.7063 4.05212C15.762 4.89183 16.5543 6.01014 16.9981 7.27385C17.1277 7.64299 16.8911 8.02773 16.5109 8.12017C16.1308 8.2126 15.7518 7.97712 15.6131 7.61129C15.2497 6.65251 14.6335 5.80459 13.8243 5.16091C12.8295 4.36956 11.5995 3.93197 10.3283 3.91718C9.05722 3.90238 7.81735 4.31123 6.80435 5.07921C5.98038 5.70388 5.34466 6.53723 4.95903 7.48729C4.81189 7.8498 4.42751 8.07639 4.0496 7.97513Z" fill="white"/>
<path fill-rule="evenodd" clip-rule="evenodd" d="M6.11017 4.16355C5.07558 4.94789 4.28815 6.00624 3.83279 7.21228C3.75685 7.41341 3.87611 7.65146 4.1189 7.71652C4.3471 7.77767 4.60676 7.64329 4.71095 7.38659C5.11462 6.39209 5.78008 5.51975 6.6426 4.86585C7.703 4.06194 9.00087 3.63397 10.3315 3.64946C11.662 3.66494 12.9496 4.12301 13.991 4.95138C14.8381 5.62517 15.4831 6.51277 15.8635 7.51639C15.9617 7.77544 16.2181 7.91583 16.4477 7.86001C16.6919 7.80062 16.8167 7.56541 16.7454 7.36257C16.3183 6.14625 15.5557 5.06987 14.5396 4.26166C13.345 3.31142 11.8681 2.78597 10.3417 2.7682C8.81537 2.75044 7.32656 3.24137 6.11017 4.16355ZM3.58231 7.11771C3.44412 7.48373 3.6717 7.87387 4.0496 7.97513C4.42751 8.07639 4.81189 7.8498 4.95903 7.48729C5.34466 6.53723 5.98038 5.70388 6.80435 5.07921C7.81735 4.31123 9.05722 3.90238 10.3283 3.91718C11.5995 3.93197 12.8295 4.36956 13.8243 5.16091C14.6335 5.80459 15.2497 6.65251 15.6131 7.61129C15.7518 7.97712 16.1308 8.2126 16.5109 8.12017C16.8911 8.02773 17.1277 7.64299 16.9981 7.27385C16.5543 6.01014 15.762 4.89183 14.7063 4.05212C13.4652 3.06486 11.9306 2.51894 10.3448 2.50048C8.75902 2.48203 7.21221 2.99209 5.94842 3.95019C4.87352 4.7651 4.05541 5.86468 3.58231 7.11771Z" fill="white"/>
<path d="M3.0026 10.367C2.70511 10.5388 2.33325 10.3241 2.33325 9.98057L2.33325 6.77703C2.33325 6.43352 2.70511 6.21883 3.0026 6.39058L5.77695 7.99236C6.07443 8.16411 6.07443 8.59349 5.77695 8.76525L3.0026 10.367Z" fill="white"/>
<path d="M10.7378 12H9.75V8.19238L8.5708 8.55811V7.75488L10.6318 7.0166H10.7378V12Z" fill="white"/>
<defs>
<filter id="filter0_b" x="-25" y="-25" width="70" height="70" filterUnits="userSpaceOnUse" color-interpolation-filters="sRGB">
<feFlood flood-opacity="0" result="BackgroundImageFix"/>
<feGaussianBlur in="BackgroundImage" stdDeviation="12.5"/>
<feComposite in2="SourceAlpha" operator="in" result="effect1_backgroundBlur"/>
<feBlend mode="normal" in="SourceGraphic" in2="effect1_backgroundBlur" result="shape"/>
</filter>
</defs>
</svg>
